<svg id="SvgjsSvg1001" width="288" height="288" xmlns="http://www.w3.org/2000/svg" version="1.1" xmlns:xlink="http://www.w3.org/1999/xlink" xmlns:svgjs="http://svgjs.com/svgjs"><defs id="SvgjsDefs1002"></defs><g id="SvgjsG1008"><svg xmlns="http://www.w3.org/2000/svg" enable-background="new 0 0 1368 265.5" viewBox="0 0 1368 265.5" width="288" height="288"><path fill="#000000" d="M373.3 79.6c0 11.6-.1 14.6-.9 17.9-1.1 5-3.9 13.6-19.3 13.6-13.1 0-18.5-7.8-19.8-15.7-.4-2.4-.9-6.1-.9-27.5 0-22.6.4-25.3 1-29.1.7-3.8 2.9-16.2 20.6-16.2 7.1 0 15.8 3 18 12.4 1 4.1 1 9.2.9 15.9h-10v-6.4c0-5.8-.1-12.9-8.9-12.9-9.1 0-9.9 7.3-10.2 10.6-.7 6.2-.7 19.2-.7 25.8 0 5.2.2 22.6.7 26 .4 1.6 1.5 8 10 8 7.7 0 8.8-6.6 9.1-8.1.5-2.2.5-4.1.5-14.4L373.3 79.6 373.3 79.6zM415.4 97c0 9.5.4 10.8 2.9 12.9h-11.9v-7.3c-1.3 2.7-4.3 8.4-12.5 8.4-2.8 0-5.2-.6-7.3-1.8-5.7-3.4-6.3-9.2-6.3-13.7 0-9.9 3.9-13 10.2-17.4 9.2-6.2 10.2-6.8 15.3-11.6 0-5 0-10.7-7.4-10.7-7.3 0-7.3 5.1-7.3 8.8 0 1.8.1 3.2.2 4.5h-8.9c-.1-2.6-.1-9.1.9-12.2 3-8.9 13.4-8.9 16.1-8.9 4.4 0 8.8.7 12.3 4.5 3.8 3.9 3.8 7.2 3.8 15.4V97H415.4zM405.8 75.2c-2.8 2.7-3.3 3-8 6.6-4.4 3.4-7.7 6-7.7 13 0 2.7 0 9 6.6 9 1.8 0 3.6-.6 5.2-1.8 3.5-2.7 3.9-6.8 3.9-11.7V75.2zM461.1 109.9h-9.9V70.3c0-8.8 0-14.6-7.2-14.6-8.1 0-8.1 8.3-8.1 15V110h-9.7V49.2h9.2v5.6c1.8-2.2 5.6-6.7 13-6.7 12.6 0 12.6 10.7 12.6 19.1v42.7H461.1zM504.1 97c0 9.5.4 10.8 2.9 12.9h-11.9v-7.3c-1.3 2.7-4.3 8.4-12.5 8.4-2.8 0-5.2-.6-7.3-1.8-5.7-3.4-6.3-9.2-6.3-13.7 0-9.9 3.9-13 10.2-17.4 9.2-6.2 10.2-6.8 15.3-11.6 0-5 0-10.7-7.4-10.7-7.3 0-7.3 5.1-7.3 8.8 0 1.8.1 3.2.2 4.5h-8.9C471 66.5 471 60 472 56.9c3-8.9 13.4-8.9 16.1-8.9 4.4 0 8.8.7 12.3 4.5 3.8 3.9 3.8 7.2 3.8 15.4L504.1 97 504.1 97zM494.5 75.2c-2.8 2.7-3.3 3-8 6.6-4.4 3.4-7.7 6-7.7 13 0 2.7 0 9 6.6 9 1.8 0 3.6-.6 5.2-1.8 3.5-2.7 3.9-6.8 3.9-11.7V75.2zM549.8 109.9h-9.1v-6.4c-1.3 2.3-4.5 7.5-12.8 7.5-1.2 0-2.6-.1-3.8-.5-9.9-2.6-10.2-12.9-10.2-30.6 0-5.7 0-17 1.5-21.8 1.7-5.7 6.3-10.1 13-10.1 6.9 0 9.9 3.6 11.6 6V24h9.9v85.9H549.8zM531.7 55.7c-7.3 0-7.5 7.4-7.8 12.3-.2 6.6-.2 6.6-.2 16.4 0 2.7 0 5.8.2 9.6.2 2.6.6 9.4 7.8 9.4 8.3 0 8.3-8.1 8.5-23.6C540.4 65.2 540.4 55.7 531.7 55.7zM570.1 38.4h-9.6V25.9h9.6V38.4zM570.1 109.9h-9.6V49h9.6V109.9zM613 97c0 9.5.4 10.8 2.9 12.9H604v-7.3c-1.3 2.7-4.3 8.4-12.5 8.4-2.8 0-5.2-.6-7.3-1.8-5.7-3.4-6.3-9.2-6.3-13.7 0-9.9 3.9-13 10.2-17.4 9.2-6.2 10.2-6.8 15.3-11.6 0-5 0-10.7-7.4-10.7-7.3 0-7.3 5.1-7.3 8.8 0 1.8.1 3.2.2 4.5H580c-.1-2.6-.1-9.1.9-12.2 3-8.9 13.4-8.9 16.1-8.9 4.4 0 8.8.7 12.3 4.5 3.8 3.9 3.8 7.2 3.8 15.4L613 97 613 97zM603.4 75.2c-2.8 2.7-3.3 3-8 6.6-4.4 3.4-7.7 6-7.7 13 0 2.7 0 9 6.6 9 1.8 0 3.6-.6 5.2-1.8 3.5-2.7 3.9-6.8 3.9-11.7V75.2zM658.7 109.9h-9.9V70.3c0-8.8 0-14.6-7.2-14.6-8.1 0-8.1 8.3-8.1 15V110h-9.7V49.2h9.2v5.6c1.8-2.2 5.6-6.7 13-6.7 12.6 0 12.6 10.7 12.6 19.1v42.7H658.7zM698 109.9V24h16.2c8.4 0 16.1 0 21.2 6.4 4 5 4.4 9.5 4.4 30.3 0 4.6 0 10.1-.2 21.8-.1 8.4-.4 14.5-3.4 19.6-4.9 7.8-12.9 7.8-22.1 7.8L698 109.9 698 109.9zM708.7 100.4h6.9c6.8 0 11.7-.6 12.9-8.3.6-4 .7-16.1.7-20.6 0-7.9 0-10.9-.1-19.2-.1-9.4-.2-14-4-16.7-2.7-1.8-5.1-1.8-16.4-1.8L708.7 100.4 708.7 100.4zM760 38.4h-9.6V25.9h9.6V38.4zM760 109.9h-9.6V49h9.6V109.9zM805.8 49.1v57.6c0 7.8 0 10.2-1.1 13.6-2.8 8.6-12.6 10-17.9 10-7.2 0-16.5-3.2-16.5-15.6h8.9c.1 2.6.4 7.9 8.3 7.9 8.5 0 8.5-6.6 8.5-12v-7.1c-3.3 4.7-7.7 6.7-12.3 6.7-4.4 0-10-1.8-12.3-8-1.7-4.5-1.7-8.9-1.7-24 0-10.7.1-15 1.1-19 .5-2.3 2.7-11.3 14-11.3 7.9 0 10.6 4.3 11.9 6.6V49h9.1V49.1zM795.8 64.9c-.2-5.8-2.7-10-8.3-10-8 0-8 8.8-8 18.4 0 6 0 16.9.4 21.2.2 4.7 2.2 8.4 7.4 8.4 4.6 0 7.5-2.9 8.4-7.4.5-2.8.5-11.7.5-15.1C796.2 80.1 795.9 66.6 795.8 64.9zM826 38.4h-9.6V25.9h9.6V38.4zM826 109.9h-9.6V49h9.6V109.9zM858.2 56.4h-8.9v38.7c0 3.9.4 7.8 5.6 7.8 1.6 0 2.4-.2 3.4-.5v7.9c-1.3.4-2.8.7-5.4.7-8.5 0-11.2-2.9-12.4-5.7s-1.2-4-1.2-15.2V56.4H832V49h7.5V32.7h9.7V49h8.9v7.4H858.2zM897.9 97c0 9.5.4 10.8 2.9 12.9h-11.9v-7.3c-1.3 2.7-4.3 8.4-12.5 8.4-2.8 0-5.2-.6-7.3-1.8-5.7-3.4-6.3-9.2-6.3-13.7 0-9.9 3.9-13 10.2-17.4 9.2-6.2 10.2-6.8 15.3-11.6 0-5 0-10.7-7.4-10.7-7.3 0-7.3 5.1-7.3 8.8 0 1.8.1 3.2.2 4.5h-8.9c-.1-2.6-.1-9.1.9-12.2 3-8.9 13.4-8.9 16.1-8.9 4.4 0 8.8.7 12.3 4.5 3.8 3.9 3.8 7.2 3.8 15.4L897.9 97 897.9 97zM888.3 75.2c-2.8 2.7-3.3 3-8 6.6-4.4 3.4-7.7 6-7.7 13 0 2.7 0 9 6.6 9 1.8 0 3.6-.6 5.2-1.8 3.5-2.7 3.9-6.8 3.9-11.7V75.2zM918.5 109.9h-9.9V24h9.9V109.9zM954.8 80.2H965c0 9 0 10 .1 11.6.1 2.2.9 10.2 10.3 10.2 3.4 0 10.8-1.3 10.8-10.7 0-6.8-3-10.2-7.9-15.2l-11.7-11.9c-8.1-8.4-9.9-13.6-9.9-21.4 0-4.7 0-20.1 19.9-20.1 4.4 0 11.8.7 15.7 7.1 2.4 4 2.4 6.9 2.4 19.6h-9.4c-.2-8.1-.2-9-.5-10.6-.2-1.6-1.3-6.9-8.9-6.9-9 0-9 7.8-9 10.2 0 6.4 2.3 9 8.4 15.4l10.8 11.3c7.1 7.5 10.2 11.9 10.2 21.8 0 18.2-14.4 20.6-20.8 20.6-8.3 0-12.6-2.8-14.4-4.3-5.5-4.3-6.7-10.7-6.7-17.1v-9.6H954.8zM1038.4 91.1c0 4.1 0 7.2-1.1 10.3-3.5 9.6-13 9.6-16.1 9.6-3.6 0-12-.5-15.6-9.4-1.1-2.9-1.6-4.1-1.6-28.6 0-13 1.1-24.9 16.8-24.9 3.9 0 15.1 0 17 13.3.5 3 .5 4.7.5 20.1h-24.4c0 4.7-.1 10.9.1 13.1.2 2.3.7 8.6 7.7 8.6 7.1 0 7.7-6 7.7-12.2L1038.4 91.1 1038.4 91.1zM1029.3 73.5V66c-.1-3.3-.2-10.5-7.5-10.5-5 0-6.4 3.2-7.1 5.1-.7 2.3-.7 4.3-.7 12.9H1029.3zM1058.1 109.9h-10V49.1h9.4v11.4c2.2-4.7 6-13 16.4-12.4v10.1c-4.4 0-9.7 0-13.1 5-1.9 2.9-2.7 6.3-2.7 17.6L1058.1 109.9 1058.1 109.9zM1102.2 109.9h-11.1l-13-60.8h10.6l8 49.7 8.9-49.7h10.5L1102.2 109.9zM1131.2 38.4h-9.6V25.9h9.6V38.4zM1131.2 109.9h-9.6V49h9.6V109.9zM1175.4 87.3c0 11.1 0 23.7-17.6 23.7-7.4 0-13.4-2.7-15.4-9.6-1.2-4-1.5-10.5-1.5-20.4 0-21.6.6-33 17.9-33 16.7 0 16.7 11.1 16.7 23.1h-9.2c0-10.5 0-15.7-7.7-15.7s-7.8 5.2-7.8 22.3c0 2.4 0 11.1.1 16.3.1 3.2.4 9.4 7.5 9.4 7.2 0 7.8-6 7.8-16.1H1175.4zM1218.2 91.1c0 4.1 0 7.2-1.1 10.3-3.5 9.6-13 9.6-16.1 9.6-3.6 0-12-.5-15.6-9.4-1.1-2.9-1.6-4.1-1.6-28.6 0-13 1.1-24.9 16.8-24.9 3.9 0 15.1 0 17 13.3.5 3 .5 4.7.5 20.1h-24.3c0 4.7-.1 10.9.1 13.1.2 2.3.7 8.6 7.7 8.6 7.1 0 7.7-6 7.7-12.2L1218.2 91.1 1218.2 91.1zM1209.1 73.5V66c-.1-3.3-.2-10.5-7.5-10.5-5 0-6.4 3.2-7.1 5.1-.7 2.3-.7 4.3-.7 12.9H1209.1zM330.4 203.9h10.2c0 9 0 10 .1 11.6.1 2.2.9 10.2 10.3 10.2 3.4 0 10.8-1.3 10.8-10.7 0-6.8-3-10.2-7.9-15.2l-11.7-11.9c-8.1-8.4-9.9-13.6-9.9-21.4 0-4.7 0-20.1 19.9-20.1 4.4 0 11.8.7 15.7 7.1 2.4 4 2.4 6.9 2.4 19.6h-9.4c-.2-8.1-.2-9-.5-10.6-.2-1.6-1.3-6.9-8.9-6.9-9 0-9 7.8-9 10.2 0 6.4 2.3 9 8.4 15.4l10.8 11.3c7.1 7.5 10.2 11.9 10.2 21.8 0 18.2-14.3 20.6-20.8 20.6-8.3 0-12.6-2.8-14.4-4.3-5.5-4.3-6.7-10.7-6.7-17.1v-9.6H330.4zM413.9 214.7c0 4.1 0 7.2-1.1 10.3-3.5 9.6-13 9.6-16.1 9.6-3.6 0-12-.5-15.6-9.4-1.1-2.9-1.6-4.1-1.6-28.6 0-13 1.1-24.9 16.8-24.9 3.9 0 15.1 0 17 13.3.5 3 .5 4.7.5 20.1h-24.4c0 4.7-.1 10.9.1 13.1.2 2.3.7 8.6 7.7 8.6 7.1 0 7.7-6 7.7-12.2h9V214.7zM404.8 197.2v-7.5c-.1-3.3-.2-10.5-7.5-10.5-5 0-6.4 3.2-7.1 5.1-.7 2.3-.7 4.3-.7 12.9H404.8zM433.6 233.5h-10v-60.8h9.4v11.4c2.2-4.7 6-13 16.4-12.4v10.1c-4.4 0-9.7 0-13.1 5-1.9 2.9-2.7 6.3-2.7 17.6V233.5L433.6 233.5zM477.8 233.5h-11.1l-13-60.8h10.6l8 49.7 8.9-49.7h10.5L477.8 233.5zM506.7 162h-9.6v-12.5h9.6V162zM506.7 233.5h-9.6v-60.9h9.6V233.5zM551 210.9c0 11.1 0 23.7-17.6 23.7-7.4 0-13.4-2.7-15.4-9.6-1.2-4-1.5-10.5-1.5-20.4 0-21.6.6-33 17.9-33 16.7 0 16.7 11.1 16.7 23.1h-9.3c0-10.5 0-15.7-7.7-15.7s-7.8 5.2-7.8 22.3c0 2.4 0 11.1.1 16.3.1 3.2.4 9.4 7.5 9.4 7.2 0 7.8-6 7.8-16.1L551 210.9 551 210.9zM593.8 214.7c0 4.1 0 7.2-1.1 10.3-3.5 9.6-13 9.6-16.1 9.6-3.6 0-12-.5-15.6-9.4-1.1-2.9-1.6-4.1-1.6-28.6 0-13 1.1-24.9 16.8-24.9 3.9 0 15.1 0 17 13.3.5 3 .5 4.7.5 20.1h-24.4c0 4.7-.1 10.9.1 13.1.2 2.3.7 8.6 7.7 8.6 7.1 0 7.7-6 7.7-12.2h9V214.7zM584.7 197.2v-7.5c-.1-3.3-.2-10.5-7.5-10.5-5 0-6.4 3.2-7.1 5.1-.7 2.3-.7 4.3-.7 12.9H584.7zM666.3 233.5h-9.9v-39.6c0-8.8 0-14.6-7.2-14.6-8.1 0-8.1 8.3-8.1 15v39.3h-9.7v-60.8h9.2v5.6c1.8-2.2 5.6-6.7 13-6.7 12.6 0 12.6 10.7 12.6 19.1v42.7H666.3zM711.9 233.5h-9.4v-5.6c-1.9 2.4-5.4 6.7-12.9 6.7-5.1 0-8.3-2.3-9.9-4.7-2.6-3.9-2.8-8.3-2.8-18.9v-38.3h9.7v39.9l.1 5.8c0 2.4.2 8.9 7.1 8.9 8.4 0 8.4-8.5 8.4-14.8v-39.8h9.6v60.8H711.9zM782.9 233.5H773v-39.8c0-5.4-.1-7.7-.6-9.5-.9-2.7-3-5.1-7.1-5.1-7.8 0-7.8 8.1-7.8 14.5v39.9h-9.7v-39.8c0-8.1 0-14.6-7.5-14.6-7.9 0-7.9 7.7-7.9 14.7v39.6h-9.9v-60.8h9.2v6.1c1.8-2.4 5.5-7.2 13-7.2 7.8 0 10.6 4.7 11.9 7.2 1.9-2.6 5.2-7.2 12.6-7.2 1.2 0 5.7 0 9.5 3.8 4.1 4.1 4.1 8.6 4.1 18.5v39.7H782.9zM826.8 214.7c0 4.1 0 7.2-1.1 10.3-3.5 9.6-13 9.6-16.1 9.6-3.6 0-12-.5-15.6-9.4-1.1-2.9-1.6-4.1-1.6-28.6 0-13 1.1-24.9 16.8-24.9 3.9 0 15.1 0 17 13.3.5 3 .5 4.7.5 20.1h-24.4c0 4.7-.1 10.9.1 13.1.2 2.3.7 8.6 7.7 8.6 7.1 0 7.7-6 7.7-12.2h9V214.7zM817.7 197.2v-7.5c-.1-3.3-.2-10.5-7.5-10.5-5 0-6.4 3.2-7.1 5.1-.7 2.3-.7 4.3-.7 12.9H817.7zM812.2 165.1h-7.8l6.4-13.1h13.3L812.2 165.1zM846.5 233.5h-10v-60.8h9.4v11.4c2.2-4.7 6-13 16.4-12.4v10.1c-4.4 0-9.7 0-13.1 5-1.9 2.9-2.7 6.3-2.7 17.6L846.5 233.5 846.5 233.5zM876.5 162h-9.6v-12.5h9.6V162zM876.5 233.5h-9.6v-60.9h9.6V233.5zM922.1 252.9h-9.6v-25.4c-1.2 1.9-4.4 7.2-12.2 7.2-7.3 0-11.9-5.1-13.3-11.7-.6-3.4-.9-14.7-.9-18.8 0-5 0-16.9.9-20.9 1.7-7.4 7.5-11.6 13.6-11.6 7.4 0 10.3 4.7 12 7.7v-6.6h9.4L922.1 252.9 922.1 252.9zM912.2 188.8c-.1-2.3-.7-9.4-8.4-9.4-6.6 0-6.9 5.8-7.2 8.3-.2 3-.2 11.2-.2 16.5 0 16.1 0 22.7 7.5 22.7 8.8 0 8.8-8.9 8.8-24.2C912.7 199.8 912.4 191.8 912.2 188.8zM967.8 233.5h-9.4v-5.6c-1.9 2.4-5.4 6.7-12.9 6.7-5.1 0-8.3-2.3-9.9-4.7-2.6-3.9-2.8-8.3-2.8-18.9v-38.3h9.7v39.9l.1 5.8c0 2.4.2 8.9 7.1 8.9 8.4 0 8.4-8.5 8.4-14.8v-39.8h9.6v60.8H967.8zM1011.8 214.7c0 4.1 0 7.2-1.1 10.3-3.5 9.6-13 9.6-16.1 9.6-3.6 0-12-.5-15.6-9.4-1.1-2.9-1.6-4.1-1.6-28.6 0-13 1.1-24.9 16.8-24.9 3.9 0 15.1 0 17 13.3.5 3 .5 4.7.5 20.1h-24.4c0 4.7-.1 10.9.1 13.1.2 2.3.7 8.6 7.7 8.6 7.1 0 7.7-6 7.7-12.2h9V214.7zM1002.7 197.2v-7.5c-.1-3.3-.2-10.5-7.5-10.5-5 0-6.4 3.2-7.1 5.1-.7 2.3-.7 4.3-.7 12.9H1002.7zM1082.9 210.9c0 11.1 0 23.7-17.6 23.7-7.4 0-13.4-2.7-15.4-9.6-1.2-4-1.5-10.5-1.5-20.4 0-21.6.6-33 17.9-33 16.7 0 16.7 11.1 16.7 23.1h-9.2c0-10.5 0-15.7-7.7-15.7s-7.8 5.2-7.8 22.3c0 2.4 0 11.1.1 16.3.1 3.2.4 9.4 7.5 9.4 7.2 0 7.8-6 7.8-16.1L1082.9 210.9 1082.9 210.9zM1124.6 220.6c0 9.5.4 10.8 2.9 12.9h-11.9v-7.3c-1.3 2.7-4.3 8.4-12.5 8.4-2.8 0-5.2-.6-7.3-1.8-5.7-3.4-6.3-9.2-6.3-13.7 0-9.9 3.9-13 10.2-17.4 9.2-6.2 10.2-6.8 15.3-11.6 0-5 0-10.7-7.4-10.7-7.3 0-7.3 5.1-7.3 8.8 0 1.8.1 3.2.2 4.5h-8.9c-.1-2.6-.1-9.1.9-12.2 3-8.9 13.4-8.9 16.1-8.9 4.4 0 8.8.7 12.3 4.5 3.8 3.9 3.8 7.2 3.8 15.4L1124.6 220.6 1124.6 220.6zM1115 198.9c-2.8 2.7-3.3 3-8 6.6-4.4 3.4-7.7 6-7.7 13 0 2.7 0 9 6.6 9 1.8 0 3.6-.6 5.2-1.8 3.5-2.7 3.9-6.8 3.9-11.7V198.9zM1170.3 233.5h-9.9v-39.6c0-8.8 0-14.6-7.2-14.6-8.1 0-8.1 8.3-8.1 15v39.3h-9.7v-60.8h9.2v5.6c1.8-2.2 5.6-6.7 13-6.7 12.6 0 12.6 10.7 12.6 19.1L1170.3 233.5 1170.3 233.5zM1213.3 220.6c0 9.5.4 10.8 2.9 12.9h-11.9v-7.3c-1.3 2.7-4.3 8.4-12.5 8.4-2.8 0-5.2-.6-7.3-1.8-5.7-3.4-6.3-9.2-6.3-13.7 0-9.9 3.9-13 10.2-17.4 9.2-6.2 10.2-6.8 15.3-11.6 0-5 0-10.7-7.4-10.7-7.3 0-7.3 5.1-7.3 8.8 0 1.8.1 3.2.2 4.5h-8.9c-.1-2.6-.1-9.1.9-12.2 3-8.9 13.4-8.9 16.1-8.9 4.4 0 8.8.7 12.3 4.5 3.8 3.9 3.8 7.2 3.8 15.4L1213.3 220.6 1213.3 220.6zM1203.7 198.9c-2.8 2.7-3.3 3-8 6.6-4.4 3.4-7.7 6-7.7 13 0 2.7 0 9 6.6 9 1.8 0 3.6-.6 5.2-1.8 3.5-2.7 3.9-6.8 3.9-11.7V198.9zM1259 233.5h-9.1v-6.4c-1.3 2.3-4.5 7.5-12.8 7.5-1.2 0-2.6-.1-3.8-.5-9.9-2.6-10.2-12.9-10.2-30.6 0-5.7 0-17 1.5-21.8 1.7-5.7 6.3-10.1 13-10.1 6.9 0 9.9 3.6 11.6 6v-29.9h9.9L1259 233.5 1259 233.5zM1240.9 179.3c-7.3 0-7.5 7.4-7.8 12.3-.2 6.6-.2 6.6-.2 16.4 0 2.7 0 5.8.2 9.6.2 2.6.6 9.4 7.8 9.4 8.3 0 8.3-8.1 8.5-23.6C1249.6 188.8 1249.6 179.3 1240.9 179.3zM1279.3 162h-9.6v-12.5h9.6V162zM1279.3 233.5h-9.6v-60.9h9.6V233.5zM1323.3 214.7c0 4.1 0 7.2-1.1 10.3-3.5 9.6-13 9.6-16.1 9.6-3.6 0-12-.5-15.6-9.4-1.1-2.9-1.6-4.1-1.6-28.6 0-13 1.1-24.9 16.8-24.9 3.9 0 15.1 0 17 13.3.5 3 .5 4.7.5 20.1h-24.4c0 4.7-.1 10.9.1 13.1.2 2.3.7 8.6 7.7 8.6 7.1 0 7.7-6 7.7-12.2h9V214.7zM1314.2 197.2v-7.5c-.1-3.3-.2-10.5-7.5-10.5-5 0-6.4 3.2-7.1 5.1-.7 2.3-.7 4.3-.7 12.9H1314.2zM1368 233.5h-9.9v-39.6c0-8.8 0-14.6-7.2-14.6-8.1 0-8.1 8.3-8.1 15v39.3h-9.7v-60.8h9.2v5.6c1.8-2.2 5.6-6.7 13-6.7 12.6 0 12.6 10.7 12.6 19.1L1368 233.5 1368 233.5z" class="colorfff svgShape"></path><g fill="#ffffff" class="color000 svgShape"><rect width="258.5" height="258.5" x="3.5" y="3.5" fill="#ffffff" class="color000 svgShape"></rect><path fill="#000000" d="M214 75.4L213.6 64c0-1.1.9-1.1 2.9-.7l9.2 1.8-1.2-3c-.4-1.2-.5-1.9.4-2.7l10.9-8.9-2-1.2c-.6-.4-.6-.9-.3-1.9l2-6.6-5.3 1.1c-1.5.3-1.9 0-2.2-.8l-1.5-3-5.2 5.9c-.9 1.1-2.2.4-1.8-1.2l2.5-12.2-3.8 2.2c-.6.4-1.3.5-1.6-.2l-4.1-8.2-4.1 8.2c-.4.7-1 .6-1.6.2l-3.8-2.2 2.5 12.2c.4 1.6-.9 2.3-1.8 1.2l-5.2-5.9-1.5 3c-.4.8-.8 1.2-2.2.8l-5.3-1.1 2 6.6c.3 1 .3 1.5-.3 1.9l-2 1.2 10.9 8.9c.9.8.8 1.6.4 2.7l-1.2 3 9.2-1.8c2-.4 2.9-.4 2.9.7L211 75.4H214zM170.9 143.2c0 7.6-.1 9.6-.6 11.8-.7 3.3-2.6 9-12.8 9-8.7 0-12.2-5.1-13.1-10.4-.2-1.6-.6-4-.6-18.2 0-15 .2-16.7.6-19.2.5-2.5 1.9-10.7 13.6-10.7 4.7 0 10.5 2 11.9 8.2.6 2.7.6 6.1.6 10.5h-6.6v-4.3c0-3.9-.1-8.5-5.9-8.5-6 0-6.5 4.8-6.8 7-.5 4.1-.5 12.7-.5 17 0 3.5.2 15 .5 17.2.2 1 1 5.3 6.6 5.3 5.1 0 5.8-4.3 6-5.4.3-1.4.3-2.7.3-9.5h6.8V143.2zM176.7 163.3v-56.8h10.7c5.5 0 10.6 0 14 4.3 2.7 3.3 2.9 6.3 2.9 20 0 3.1 0 6.7-.2 14.4-.1 5.5-.2 9.6-2.3 12.9-3.2 5.1-8.5 5.1-14.6 5.1h-10.5V163.3zM183.8 157.1h4.6c4.5 0 7.7-.4 8.5-5.5.4-2.7.5-10.6.5-13.6 0-5.2 0-7.2-.1-12.7-.1-6.2-.2-9.2-2.7-11-1.8-1.2-3.4-1.2-10.9-1.2v44H183.8zM208.8 143.6h6.8c0 6 0 6.6.1 7.6.1 1.4.6 6.8 6.8 6.8 2.3 0 7.2-.9 7.2-7.1 0-4.5-2-6.8-5.2-10.1l-7.7-7.9c-5.4-5.5-6.5-9-6.5-14.2 0-3.1 0-13.3 13.2-13.3 2.9 0 7.8.5 10.4 4.7 1.6 2.7 1.6 4.6 1.6 12.9h-6.2c-.2-5.4-.2-6-.3-7-.2-1-.9-4.6-5.9-4.6-5.9 0-5.9 5.1-5.9 6.8 0 4.3 1.5 6 5.5 10.2l7.2 7.5c4.7 5 6.8 7.9 6.8 14.4 0 12.1-9.5 13.6-13.7 13.6-5.5 0-8.4-1.8-9.5-2.8-3.6-2.8-4.4-7.1-4.4-11.3v-6.2H208.8zM143.5 214h6.8c0 6 0 6.6.1 7.6.1 1.4.6 6.8 6.8 6.8 2.3 0 7.2-.9 7.2-7.1 0-4.5-2-6.8-5.2-10.1l-7.7-7.9c-5.4-5.5-6.5-9-6.5-14.2 0-3.1 0-13.3 13.2-13.3 2.9 0 7.8.5 10.4 4.7 1.6 2.7 1.6 4.6 1.6 12.9h-6.4c-.2-5.4-.2-6-.3-7-.2-1-.9-4.6-5.9-4.6-5.9 0-5.9 5.1-5.9 6.8 0 4.3 1.5 6 5.5 10.2l7.2 7.5c4.7 5 6.8 7.9 6.8 14.4 0 12.1-9.5 13.6-13.7 13.6-5.5 0-8.4-1.8-9.5-2.8-3.6-2.8-4.4-7.1-4.4-11.3V214H143.5zM202.8 233.6h-10l-11-49.2 1 49.2h-7v-56.8h9.6l11.5 49.8-1-49.8h6.8v56.8H202.8zM235.5 213.6c0 7.6-.1 9.6-.6 11.8-.7 3.3-2.6 9-12.8 9-8.7 0-12.2-5.1-13.1-10.4-.2-1.6-.6-4-.6-18.2 0-15 .2-16.7.6-19.2.5-2.5 1.9-10.7 13.6-10.7 4.7 0 10.5 2 11.9 8.2.6 2.7.6 6.1.6 10.5h-6.6v-4.3c0-3.9-.1-8.5-5.9-8.5-6 0-6.5 4.8-6.8 7-.5 4.1-.5 12.7-.5 17 0 3.5.2 15 .5 17.2.2 1 1 5.3 6.6 5.3 5.1 0 5.8-4.3 6-5.4.3-1.4.3-2.7.3-9.5h6.8V213.6z" class="colorfff svgShape"></path><path fill="#000000" d="M265.5,265.5H0V0h265.5V265.5z M7,258.4h251.4V7H7V258.4z" class="colorfff svgShape"></path></g></svg></g></svg>